<?xml version="1.0" encoding="UTF-8"?>
<!-- Uploaded to: SVG Repo, www.svgrepo.com, Generator: SVG Repo Mixer Tools -->
<svg width="800px" height="800px" viewBox="0 0 24 24" version="1.1" xmlns="http://www.w3.org/2000/svg" xmlns:xlink="http://www.w3.org/1999/xlink">
    <title>Lightning-Bolt</title>
    <g id="Page-1" stroke="none" stroke-width="1" fill="none" fill-rule="evenodd">
        <g id="Lightning-Bolt">
            <rect id="Rectangle" fill-rule="nonzero" x="0" y="0" width="24" height="24">

</rect>
            <path d="M6.8618,11.2764 L10.8618,3.27639 C10.9465,3.107 11.1196,3 11.309,3 L17.0397,3 C17.4442,3 17.6813,3.45534 17.4493,3.78673 L15.0507,7.21327 C14.8187,7.54466 15.0558,8 15.4603,8 L16.9129,8 C17.3401,8 17.5705,8.50106 17.2925,8.8254 L7.96557,19.7068 C7.59763,20.1361 6.91173,19.7207 7.1217,19.1957 L9.72572,12.6857 C9.85709,12.3573 9.61522,12 9.26148,12 L7.30902,12 C6.93733,12 6.69558,11.6088 6.8618,11.2764 Z" id="Path" stroke="#fff" stroke-width="2" stroke-linecap="round">

</path>
        </g>
    </g>
</svg>